<svg id="benefite" xmlns="http://www.w3.org/2000/svg" width="95.011" height="95.011" viewBox="0 0 95.011 95.011">
  <g id="Group_120" data-name="Group 120" transform="translate(0 0)">
    <path id="Path_146" data-name="Path 146" d="M84.692,68.905A20.363,20.363,0,0,0,96.011,50.591V43.908H65.79l-3.214,9.639a5.505,5.505,0,0,0-.279,1.726,5.429,5.429,0,0,0,3.017,4.884l.048,3.039a6.7,6.7,0,0,0,6.13,6.7v6.585a22.164,22.164,0,0,0-3.911,3.607,18.407,18.407,0,0,0-11.8-6.953l-.634-1.9A9.2,9.2,0,0,0,62.3,62.276V43.908H57.7V38.5a6.217,6.217,0,0,1,2.366-4.826,18.371,18.371,0,0,0,.7-27.993,18.392,18.392,0,0,0-30.42,10.794A18.309,18.309,0,0,0,36.867,33.61,6.372,6.372,0,0,1,39.311,38.5v5.4h-4.6V62.276a9.2,9.2,0,0,0,7.147,8.957l-.636,1.906A18.7,18.7,0,0,0,29.434,80.1a22.19,22.19,0,0,0-3.917-3.615V69.9a6.7,6.7,0,0,0,6.131-6.7V60.179l.048-.023a5.461,5.461,0,0,0,2.737-6.611l-3.212-9.637h-4.17V17.5L19.913,3.219a4.012,4.012,0,0,0-7.178,0L5.6,17.5V43.908H1v6.683A20.363,20.363,0,0,0,12.319,68.905l.941.47v2.506A17.684,17.684,0,0,0,1,88.727v7.284H96.011V88.726A17.684,17.684,0,0,0,83.751,71.88V69.374Zm8.254-18.314a17.29,17.29,0,0,1-9.195,15.318V61.4l1.718-1.718a4.564,4.564,0,0,0,1.347-3.252v-.262a4.606,4.606,0,0,0-3.065-4.335V46.973h9.195ZM74.557,69.959h3.065V66.895h-5.5a3.67,3.67,0,0,1-2.613-1.083A3.72,3.72,0,0,1,68.427,63.2v-4.91l-1.741-.872a2.394,2.394,0,0,1-1.2-2.9L68,46.973H80.686v7.662h1.532a1.535,1.535,0,0,1,1.532,1.532v.262a1.526,1.526,0,0,1-.449,1.085L80.686,60.13V72l-4.715,1.965q-.722.3-1.414.648ZM48.505,78.515l-4.377-4.393.884-2.653H52l.884,2.653Zm-6.663-2.343,4.5,4.513-3.074,3.074L41.59,76.212C41.674,76.2,41.758,76.184,41.842,76.172Zm13.328,0c.084.012.169.026.253.04l-1.678,7.549-3.074-3.074ZM38.807,31.238a15.278,15.278,0,0,1-5.437-14.3A15.437,15.437,0,0,1,46.732,4.163,15.317,15.317,0,0,1,58.14,31.29a9.288,9.288,0,0,0-3.463,6.488h-3L52.6,23.986h2.04a4.6,4.6,0,0,0,0-9.195h-.2a4.61,4.61,0,0,0-4.587,4.292l-.123,1.837H47.282l-.123-1.839a4.61,4.61,0,0,0-4.587-4.291h-.2a4.6,4.6,0,0,0,0,9.195h2.04l.919,13.792h-3a9.475,9.475,0,0,0-3.526-6.54Zm9.6,6.54-.919-13.792h2.037L48.6,37.778ZM52.8,20.922l.109-1.634a1.538,1.538,0,0,1,1.529-1.431h.2a1.532,1.532,0,0,1,0,3.065Zm-8.588,0H42.376a1.532,1.532,0,0,1,0-3.065h.2A1.538,1.538,0,0,1,44.1,19.288ZM42.376,40.843H54.635v3.065H42.376Zm-4.6,21.433v-15.3H59.232v15.3a6.136,6.136,0,0,1-6.13,6.13H43.908a6.137,6.137,0,0,1-6.13-6.13Zm-13.367,17.2-1.056,2.11-5.7-3.419-.639-2.555L19.86,76.8A19.178,19.178,0,0,1,24.411,79.476Zm7.115-24.962a2.4,2.4,0,0,1-1.2,2.9l-1.741.872V63.2a3.7,3.7,0,0,1-3.7,3.7h-5.5v3.065h3.065v4.657q-.692-.347-1.414-.648L16.324,72V60.13l-2.616-2.616a1.526,1.526,0,0,1-.449-1.085v-.262a1.535,1.535,0,0,1,1.532-1.532h1.532V46.973H29.011ZM17.857,43.908V19.389h6.13V43.908ZM15.477,4.587a.983.983,0,0,1,1.693,0l5.869,11.737H9.609Zm-6.815,14.8h6.13V43.908H8.662Zm-4.6,31.2V46.973h9.195v4.859a4.606,4.606,0,0,0-3.065,4.335v.262a4.57,4.57,0,0,0,1.347,3.252L13.259,61.4v4.51A17.292,17.292,0,0,1,4.065,50.591Zm9.195,42.355V83.751H10.195v9.195H4.065v-4.22A14.623,14.623,0,0,1,13.7,74.966l1.293,5.175,9.625,5.776,2.121-4.243a19.077,19.077,0,0,1,4.85,11.273Zm21.4,0A22.161,22.161,0,0,0,31.347,82.7,15.6,15.6,0,0,1,38.626,77l2.86,12.871,7.02-7.02,7.02,7.02L58.388,76.99a15.363,15.363,0,0,1,7.278,5.71,22.152,22.152,0,0,0-3.316,10.246Zm58.284-4.22v4.22h-6.13V83.751H83.751v9.195H65.423A19.1,19.1,0,0,1,77.151,76.8l5.177-2.156A14.63,14.63,0,0,1,92.946,88.726Z" transform="translate(-1 -1)" fill="#fff"/>
    <path id="Path_147" data-name="Path 147" d="M39.727,38H36.662a1.535,1.535,0,0,1-1.532,1.532H29V42.6h6.13A4.6,4.6,0,0,0,39.727,38Z" transform="translate(13.908 18.7)" fill="#fff"/>
    <path id="Path_148" data-name="Path 148" d="M49,25.6A4.6,4.6,0,1,0,53.6,21,4.6,4.6,0,0,0,49,25.6Zm6.13,0A1.532,1.532,0,1,1,53.6,24.065,1.535,1.535,0,0,1,55.13,25.6Z" transform="translate(24.557 9.649)" fill="#fff"/>
    <path id="Path_149" data-name="Path 149" d="M49.065,11.778a5.719,5.719,0,0,1,5.713-5.713h.835A5.713,5.713,0,0,1,59.18,16.239l-5.518,4.415v6.865h3.065V22.125l4.367-3.494A8.777,8.777,0,0,0,55.611,3h-.835A8.786,8.786,0,0,0,46,11.778v.417h3.065Z" transform="translate(22.959 0.065)" fill="#fff"/>
  </g>
</svg>
