<svg id="benefit" xmlns="http://www.w3.org/2000/svg" width="95.011" height="95.011" viewBox="0 0 95.011 95.011">
  <g id="Group_99" data-name="Group 99">
    <g id="Group_98" data-name="Group 98">
      <path id="Path_114" data-name="Path 114" d="M85.732,8.165H76.887v-2.6a5.567,5.567,0,0,0-11.134,0v2.6H34.577v-2.6a5.567,5.567,0,0,0-11.134,0V8.234a1.852,1.852,0,0,0-.495-.069H15.555a9.289,9.289,0,0,0-9.278,9.278V49.052a1.856,1.856,0,0,0,3.711,0V27.278h66.9a1.856,1.856,0,0,0,0-3.711H9.988V17.443a5.573,5.573,0,0,1,5.567-5.567h7.394a1.859,1.859,0,0,0,.495-.069V14.2a5.567,5.567,0,0,0,11.134,0v-2.32H65.753V14.2a5.567,5.567,0,0,0,11.134,0v-2.32h8.845A5.573,5.573,0,0,1,91.3,17.443V87.958a3.341,3.341,0,0,1-6.683,0v-4.8A1.856,1.856,0,0,0,82.761,81.3H61.176a1.856,1.856,0,0,0,0,3.711h19.73v2.945a7.01,7.01,0,0,0,.843,3.341H7.052a3.344,3.344,0,0,1-3.34-3.34V85.013H45.246a1.856,1.856,0,1,0,0-3.711H26.7a15.217,15.217,0,1,0-19.83,0H1.856A1.856,1.856,0,0,0,0,83.158v4.8a7.06,7.06,0,0,0,7.052,7.052H87.958a7.061,7.061,0,0,0,7.053-7.053V17.443A9.289,9.289,0,0,0,85.732,8.165ZM30.866,14.2a1.856,1.856,0,1,1-3.711,0V5.567a1.856,1.856,0,1,1,3.711,0Zm42.309,0a1.856,1.856,0,0,1-3.711,0V5.567a1.856,1.856,0,0,1,3.711,0ZM5.285,69.773A11.505,11.505,0,1,1,16.79,81.279,11.518,11.518,0,0,1,5.285,69.773Z" fill="#fff"/>
    </g>
  </g>
  <g id="Group_101" data-name="Group 101" transform="translate(83.736 23.567)">
    <g id="Group_100" data-name="Group 100">
      <path id="Path_115" data-name="Path 115" d="M454.407,127.544a1.854,1.854,0,1,0,.544,1.312A1.869,1.869,0,0,0,454.407,127.544Z" transform="translate(-451.24 -127)" fill="#fff"/>
    </g>
  </g>
  <g id="Group_103" data-name="Group 103" transform="translate(52.252 81.303)">
    <g id="Group_102" data-name="Group 102">
      <path id="Path_116" data-name="Path 116" d="M284.747,438.672a1.857,1.857,0,1,0,.544,1.312A1.867,1.867,0,0,0,284.747,438.672Z" transform="translate(-281.58 -438.13)" fill="#fff"/>
    </g>
  </g>
  <g id="Group_105" data-name="Group 105" transform="translate(34.932 56.413)">
    <g id="Group_104" data-name="Group 104">
      <path id="Path_117" data-name="Path 117" d="M195.3,304a7.052,7.052,0,1,0,7.052,7.052A7.06,7.06,0,0,0,195.3,304Zm0,10.392a3.34,3.34,0,1,1,3.34-3.34A3.344,3.344,0,0,1,195.3,314.392Z" transform="translate(-188.245 -304)" fill="#fff"/>
    </g>
  </g>
  <g id="Group_107" data-name="Group 107" transform="translate(52.252 56.413)">
    <g id="Group_106" data-name="Group 106">
      <path id="Path_118" data-name="Path 118" d="M288.63,304a7.052,7.052,0,1,0,7.052,7.052A7.06,7.06,0,0,0,288.63,304Zm0,10.392a3.34,3.34,0,1,1,3.34-3.34A3.344,3.344,0,0,1,288.63,314.392Z" transform="translate(-281.578 -304)" fill="#fff"/>
    </g>
  </g>
  <g id="Group_109" data-name="Group 109" transform="translate(69.572 56.413)">
    <g id="Group_108" data-name="Group 108">
      <path id="Path_119" data-name="Path 119" d="M381.964,304a7.052,7.052,0,1,0,7.052,7.052A7.06,7.06,0,0,0,381.964,304Zm0,10.392a3.34,3.34,0,1,1,3.34-3.34A3.344,3.344,0,0,1,381.964,314.392Z" transform="translate(-374.912 -304)" fill="#fff"/>
    </g>
  </g>
  <g id="Group_111" data-name="Group 111" transform="translate(17.613 37.114)">
    <g id="Group_110" data-name="Group 110">
      <path id="Path_120" data-name="Path 120" d="M101.964,200a7.052,7.052,0,1,0,7.052,7.052A7.06,7.06,0,0,0,101.964,200Zm0,10.392a3.34,3.34,0,1,1,3.34-3.34A3.344,3.344,0,0,1,101.964,210.392Z" transform="translate(-94.912 -200)" fill="#fff"/>
    </g>
  </g>
  <g id="Group_113" data-name="Group 113" transform="translate(52.252 37.114)">
    <g id="Group_112" data-name="Group 112">
      <path id="Path_121" data-name="Path 121" d="M288.63,200a7.052,7.052,0,1,0,7.052,7.052A7.06,7.06,0,0,0,288.63,200Zm0,10.392a3.34,3.34,0,1,1,3.34-3.34A3.344,3.344,0,0,1,288.63,210.392Z" transform="translate(-281.578 -200)" fill="#fff"/>
    </g>
  </g>
  <g id="Group_115" data-name="Group 115" transform="translate(69.572 37.114)">
    <g id="Group_114" data-name="Group 114">
      <path id="Path_122" data-name="Path 122" d="M381.964,200a7.052,7.052,0,1,0,7.052,7.052A7.06,7.06,0,0,0,381.964,200Zm0,10.392a3.34,3.34,0,1,1,3.34-3.34A3.344,3.344,0,0,1,381.964,210.392Z" transform="translate(-374.912 -200)" fill="#fff"/>
    </g>
  </g>
  <g id="Group_117" data-name="Group 117" transform="translate(34.932 37.114)">
    <g id="Group_116" data-name="Group 116">
      <path id="Path_123" data-name="Path 123" d="M195.3,200a7.052,7.052,0,1,0,7.052,7.052A7.06,7.06,0,0,0,195.3,200Zm0,10.392a3.34,3.34,0,1,1,3.34-3.34A3.344,3.344,0,0,1,195.3,210.392Z" transform="translate(-188.245 -200)" fill="#fff"/>
    </g>
  </g>
  <g id="Group_119" data-name="Group 119" transform="translate(9.5 64.708)">
    <g id="Group_118" data-name="Group 118">
      <path id="Path_124" data-name="Path 124" d="M65.1,349.244a1.856,1.856,0,0,0-2.624,0l-6.043,6.043-2.065-2.065a1.856,1.856,0,1,0-2.624,2.625l3.378,3.377a1.856,1.856,0,0,0,2.624,0l7.356-7.356A1.856,1.856,0,0,0,65.1,349.244Z" transform="translate(-51.194 -348.7)" fill="#fff"/>
    </g>
  </g>
</svg>
