<svg xmlns="http://www.w3.org/2000/svg" width="28.731" height="28.731" viewBox="0 0 28.731 28.731">
  <path id="iconmonstr-calendar-4" d="M23.942,23.942H19.154V19.154h4.788ZM16.76,11.971H11.971V16.76H16.76Zm7.183,0H19.154V16.76h4.788ZM9.577,19.154H4.788v4.788H9.577Zm7.183,0H11.971v4.788H16.76ZM9.577,11.971H4.788V16.76H9.577ZM28.731,2.394V28.731H0V2.394H3.591v1.2a2.394,2.394,0,0,0,4.788,0v-1.2H20.351v1.2a2.394,2.394,0,0,0,4.788,0v-1.2ZM26.337,9.577H2.394v16.76H26.337ZM23.942,1.2a1.2,1.2,0,1,0-2.394,0V3.591a1.2,1.2,0,1,0,2.394,0ZM7.183,3.591a1.2,1.2,0,1,1-2.394,0V1.2a1.2,1.2,0,1,1,2.394,0Z" opacity="0.4"/>
</svg>
