<svg id="exam" xmlns="http://www.w3.org/2000/svg" width="77.011" height="95.011" viewBox="0 0 77.011 95.011">
  <path id="Path_136" data-name="Path 136" d="M114.84,0H59.17A10.682,10.682,0,0,0,48.5,10.67v73.67a10.682,10.682,0,0,0,10.67,10.67H84.407a1.392,1.392,0,0,0,0-2.784H59.17a7.9,7.9,0,0,1-7.887-7.887V10.67A7.9,7.9,0,0,1,59.17,2.784h55.67a7.9,7.9,0,0,1,7.887,7.887v73.67a7.9,7.9,0,0,1-7.887,7.887H89.6a1.392,1.392,0,0,0,0,2.784H114.84a10.682,10.682,0,0,0,10.67-10.67V10.67A10.682,10.682,0,0,0,114.84,0Z" transform="translate(-48.5)" fill="#fff"/>
  <path id="Path_137" data-name="Path 137" d="M114.281,71.495a5.1,5.1,0,0,0-7.217,0l-8.2,8.2-1.64-1.64a5.1,5.1,0,0,0-7.217,7.217l5.249,5.249a5.1,5.1,0,0,0,7.217,0l11.809-11.81a5.1,5.1,0,0,0,0-7.217Zm-1.968,5.249L100.5,88.553a2.32,2.32,0,0,1-3.28,0L91.975,83.3a2.32,2.32,0,0,1,3.28-3.28l2.624,2.624a1.392,1.392,0,0,0,1.968,0l9.185-9.185a2.32,2.32,0,1,1,3.28,3.28Z" transform="translate(-81.089 -57.01)" fill="#fff"/>
  <path id="Path_138" data-name="Path 138" d="M124.657,328.463a5.1,5.1,0,0,0-8.712-3.609l-2.3,2.3-2.3-2.3a5.1,5.1,0,0,0-7.217,7.217l2.3,2.3-2.3,2.3a5.1,5.1,0,0,0,7.217,7.217l2.3-2.3,2.3,2.3a5.1,5.1,0,0,0,7.217-7.217l-2.3-2.3,2.3-2.3A5.069,5.069,0,0,0,124.657,328.463Zm-3.463,1.64-3.28,3.28a1.392,1.392,0,0,0,0,1.969l3.28,3.28a2.32,2.32,0,0,1-3.28,3.28l-3.28-3.28a1.392,1.392,0,0,0-1.968,0l-3.28,3.28a2.32,2.32,0,0,1-3.28-3.28l3.28-3.28a1.392,1.392,0,0,0,0-1.968l-3.28-3.28a2.32,2.32,0,0,1,3.28-3.28l3.28,3.28a1.392,1.392,0,0,0,1.968,0l3.28-3.28a2.32,2.32,0,0,1,3.28,3.28Z" transform="translate(-92.594 -263.355)" fill="#fff"/>
  <path id="Path_139" data-name="Path 139" d="M114.281,198.175a5.1,5.1,0,0,0-7.217,0l-8.2,8.2-1.64-1.64a5.1,5.1,0,0,0-7.217,7.217l5.249,5.249a5.1,5.1,0,0,0,7.217,0l11.81-11.81A5.109,5.109,0,0,0,114.281,198.175Zm-1.968,5.249-11.81,11.81a2.32,2.32,0,0,1-3.28,0l-5.249-5.249a2.32,2.32,0,1,1,3.28-3.28l2.624,2.624a1.392,1.392,0,0,0,1.968,0l9.185-9.185a2.32,2.32,0,0,1,3.28,3.28Z" transform="translate(-81.089 -160.183)" fill="#fff"/>
  <path id="Path_140" data-name="Path 140" d="M261.816,99.6h27.478a1.392,1.392,0,0,0,0-2.784H261.816a1.392,1.392,0,0,0,0,2.784Z" transform="translate(-221.098 -78.853)" fill="#fff"/>
  <path id="Path_141" data-name="Path 141" d="M261.816,149.6h13.739a1.392,1.392,0,0,0,0-2.784H261.816a1.392,1.392,0,0,0,0,2.784Z" transform="translate(-221.098 -119.574)" fill="#fff"/>
  <path id="Path_142" data-name="Path 142" d="M261.816,226.284h27.478a1.392,1.392,0,0,0,0-2.784H261.816a1.392,1.392,0,0,0,0,2.784Z" transform="translate(-221.098 -182.026)" fill="#fff"/>
  <path id="Path_143" data-name="Path 143" d="M261.816,276.284h13.739a1.392,1.392,0,0,0,0-2.784H261.816a1.392,1.392,0,0,0,0,2.784Z" transform="translate(-221.098 -222.747)" fill="#fff"/>
  <path id="Path_144" data-name="Path 144" d="M261.816,352.965h27.478a1.392,1.392,0,1,0,0-2.784H261.816a1.392,1.392,0,0,0,0,2.784Z" transform="translate(-221.098 -285.199)" fill="#fff"/>
  <path id="Path_145" data-name="Path 145" d="M261.816,402.965h13.739a1.392,1.392,0,0,0,0-2.784H261.816a1.392,1.392,0,0,0,0,2.784Z" transform="translate(-221.098 -325.92)" fill="#fff"/>
</svg>
