<svg xmlns="http://www.w3.org/2000/svg" width="1217" height="1217" viewBox="0 0 1217 1217">
  <g id="Group_192" data-name="Group 192" transform="translate(-971 -2107)">
    <g id="Group_191" data-name="Group 191" transform="translate(971 2107)">
      <circle id="Ellipse_28" data-name="Ellipse 28" cx="608.5" cy="608.5" r="608.5" fill="#8fd1e6"/>
      <path id="Path_338" data-name="Path 338" d="M825.16,944.961H131.689A33.877,33.877,0,0,1,97.6,910.872V109.289A33.877,33.877,0,0,1,131.689,75.2h692.5a33.877,33.877,0,0,1,34.089,34.089V911.845a32.844,32.844,0,0,1-33.115,33.115Z" transform="translate(140.054 107.91)" fill="#fff"/>
      <path id="Path_339" data-name="Path 339" d="M857.7,271.37V108.716A32.843,32.843,0,0,0,824.586,75.6H131.116A32.843,32.843,0,0,0,98,108.716V271.37Z" transform="translate(140.624 108.48)" fill="#ff7058"/>
      <g id="Group_220" data-name="Group 220" transform="translate(288.293 423.678)">
        <rect id="Rectangle_80" data-name="Rectangle 80" width="183.107" height="25.323" transform="translate(238.624 0)" fill="#e6e9ee"/>
        <rect id="Rectangle_81" data-name="Rectangle 81" width="183.107" height="25.323" transform="translate(477.248 0)" fill="#e6e9ee"/>
        <rect id="Rectangle_82" data-name="Rectangle 82" width="183.107" height="25.323" transform="translate(238.624 69.152)" fill="#e6e9ee"/>
        <rect id="Rectangle_83" data-name="Rectangle 83" width="183.107" height="25.323" transform="translate(477.248 69.152)" fill="#e6e9ee"/>
        <rect id="Rectangle_84" data-name="Rectangle 84" width="183.107" height="25.323" transform="translate(238.624 138.305)" fill="#e6e9ee"/>
        <rect id="Rectangle_85" data-name="Rectangle 85" width="183.107" height="25.323" transform="translate(477.248 138.305)" fill="#e6e9ee"/>
        <rect id="Rectangle_86" data-name="Rectangle 86" width="183.107" height="25.323" transform="translate(0 207.457)" fill="#e6e9ee"/>
      </g>
      <rect id="Rectangle_87" data-name="Rectangle 87" width="183.107" height="176.29" transform="translate(288.293 423.678)" fill="#84dbff"/>
      <g id="Group_221" data-name="Group 221" transform="translate(288.293 631.135)">
        <rect id="Rectangle_88" data-name="Rectangle 88" width="183.107" height="25.323" transform="translate(238.624 0)" fill="#e6e9ee"/>
        <rect id="Rectangle_89" data-name="Rectangle 89" width="183.107" height="25.323" transform="translate(477.248 0)" fill="#e6e9ee"/>
        <rect id="Rectangle_90" data-name="Rectangle 90" width="183.107" height="25.323" transform="translate(0 69.152)" fill="#e6e9ee"/>
        <rect id="Rectangle_91" data-name="Rectangle 91" width="183.107" height="25.323" transform="translate(238.624 69.152)" fill="#e6e9ee"/>
      </g>
      <rect id="Rectangle_92" data-name="Rectangle 92" width="183.107" height="163.628" transform="translate(765.54 700.29)" fill="#84dbff"/>
      <g id="Group_222" data-name="Group 222" transform="translate(288.293 769.438)">
        <rect id="Rectangle_93" data-name="Rectangle 93" width="183.107" height="25.323" transform="translate(0 0)" fill="#e6e9ee"/>
        <rect id="Rectangle_94" data-name="Rectangle 94" width="183.107" height="25.323" transform="translate(238.624 0)" fill="#e6e9ee"/>
        <rect id="Rectangle_95" data-name="Rectangle 95" width="183.107" height="25.323" transform="translate(0 68.178)" fill="#e6e9ee"/>
        <rect id="Rectangle_96" data-name="Rectangle 96" width="183.107" height="25.323" transform="translate(238.624 68.178)" fill="#e6e9ee"/>
        <rect id="Rectangle_97" data-name="Rectangle 97" width="183.107" height="25.323" transform="translate(0 137.331)" fill="#e6e9ee"/>
        <rect id="Rectangle_98" data-name="Rectangle 98" width="183.107" height="25.323" transform="translate(238.624 137.331)" fill="#e6e9ee"/>
        <rect id="Rectangle_99" data-name="Rectangle 99" width="183.107" height="25.323" transform="translate(477.248 137.331)" fill="#e6e9ee"/>
        <rect id="Rectangle_100" data-name="Rectangle 100" width="183.107" height="25.323" transform="translate(0 206.483)" fill="#e6e9ee"/>
        <rect id="Rectangle_101" data-name="Rectangle 101" width="183.107" height="25.323" transform="translate(238.624 206.483)" fill="#e6e9ee"/>
        <rect id="Rectangle_102" data-name="Rectangle 102" width="183.107" height="25.323" transform="translate(477.248 206.483)" fill="#e6e9ee"/>
      </g>
      <path id="Path_344" data-name="Path 344" d="M95.507-45.627V67.708H82.227L20.467-21.277H19.359V67.708H5.636V-45.627H18.919L80.9,43.58h1.108V-45.627ZM218.584,11.039a69.056,69.056,0,0,1-6.475,30.99,48.6,48.6,0,0,1-17.775,20.144,50.465,50.465,0,0,1-51.565,0,48.6,48.6,0,0,1-17.775-20.144,69.055,69.055,0,0,1-6.465-30.99A69.056,69.056,0,0,1,125-19.95a48.6,48.6,0,0,1,17.775-20.144,50.486,50.486,0,0,1,51.577,0A48.6,48.6,0,0,1,212.109-19.95,69.055,69.055,0,0,1,218.584,11.039Zm-13.283,0A56.768,56.768,0,0,0,200.4-13.8a35.926,35.926,0,0,0-13.227-15.34,34.435,34.435,0,0,0-18.622-5.2,34.435,34.435,0,0,0-18.615,5.2A35.925,35.925,0,0,0,136.714-13.8a56.768,56.768,0,0,0-4.9,24.836,56.769,56.769,0,0,0,4.9,24.836,35.925,35.925,0,0,0,13.227,15.34,35.939,35.939,0,0,0,37.245,0,35.925,35.925,0,0,0,13.227-15.34A56.77,56.77,0,0,0,205.3,11.039Zm25.457-44.491V-45.627h85v12.175H280.122V67.708H266.4V-33.452ZM350.735-45.627V67.708H337.012V-45.627ZM469.382-10.21H455.659a28.817,28.817,0,0,0-4.234-10.4,29.353,29.353,0,0,0-7.3-7.548,31.732,31.732,0,0,0-9.5-4.626,37.8,37.8,0,0,0-10.848-1.549,34.434,34.434,0,0,0-18.622,5.2A35.925,35.925,0,0,0,391.927-13.8a56.767,56.767,0,0,0-4.9,24.836,56.767,56.767,0,0,0,4.9,24.836,35.924,35.924,0,0,0,13.227,15.34,34.434,34.434,0,0,0,18.622,5.2,37.791,37.791,0,0,0,10.848-1.549,31.734,31.734,0,0,0,9.5-4.626,28.827,28.827,0,0,0,11.539-17.958h13.723a45.719,45.719,0,0,1-5.644,15.55,42.122,42.122,0,0,1-10.183,11.649A44.334,44.334,0,0,1,439.92,66.76a51.2,51.2,0,0,1-16.136,2.5,47.5,47.5,0,0,1-25.788-7.083A48.6,48.6,0,0,1,380.22,42.029a69.056,69.056,0,0,1-6.474-30.99,69.055,69.055,0,0,1,6.484-30.99A48.6,48.6,0,0,1,398-40.095a47.5,47.5,0,0,1,25.788-7.083,51.211,51.211,0,0,1,16.131,2.491,44.334,44.334,0,0,1,13.636,7.278,42.27,42.27,0,0,1,10.183,11.622A45.448,45.448,0,0,1,469.382-10.21Zm22.136,77.918V-45.627h68.4v12.175H505.242V4.842h51.134V17.017H505.242V55.533H560.8V67.708Z" transform="translate(336.802 275.622)" fill="#fff"/>
    </g>
  </g>
</svg>
