<svg id="routine" xmlns="http://www.w3.org/2000/svg" width="88.678" height="95.011" viewBox="0 0 88.678 95.011">
  <g id="Page-1" transform="translate(0 0)">
    <g id="_052---Monitoring-Training-Routine" data-name="052---Monitoring-Training-Routine">
      <path id="Shape" d="M75.161,18.422H65.616a6.3,6.3,0,0,0-4.75-5.6l-2.123-.532a3.421,3.421,0,0,1-2.581-3.366A7.916,7.916,0,0,0,40.409,7.8a8.323,8.323,0,0,0-.078,1.385,3.044,3.044,0,0,1-2.3,3.032l-2.4.6a6.3,6.3,0,0,0-4.75,5.6H21.333A6.333,6.333,0,0,0,15,24.754V37.42a1.583,1.583,0,0,0,3.166,0V24.754a3.166,3.166,0,0,1,3.166-3.166h1.583V37.42a1.583,1.583,0,1,0,3.166,0V21.588h4.75v1.583a4.75,4.75,0,0,0,4.75,4.75H60.913a4.75,4.75,0,0,0,4.75-4.75V21.588h4.75V83.333h-28.5a1.583,1.583,0,1,0,0,3.166h28.5a3.166,3.166,0,0,0,3.166-3.166V21.588h1.583a3.166,3.166,0,0,1,3.166,3.166V89.665a3.166,3.166,0,0,1-3.166,3.166H34A1.583,1.583,0,1,0,34,96H75.161a6.333,6.333,0,0,0,6.333-6.333V24.754A6.333,6.333,0,0,0,75.161,18.422ZM62.5,23.171a1.583,1.583,0,0,1-1.583,1.583H35.582A1.583,1.583,0,0,1,34,23.171V18.963a3.166,3.166,0,0,1,2.4-3.075l2.4-.6a6.228,6.228,0,0,0,4.7-6.206,5.188,5.188,0,0,1,.046-.853,4.77,4.77,0,0,1,4.1-4.021,5.316,5.316,0,0,1,.608-.033A4.7,4.7,0,0,1,51.39,5.363,4.778,4.778,0,0,1,53,8.957a6.564,6.564,0,0,0,4.979,6.4l2.123.532a3.166,3.166,0,0,1,2.4,3.073Z" transform="translate(7.184 -0.989)" fill="#fff"/>
      <path id="Shape-2" data-name="Shape" d="M36.583,11.333A1.583,1.583,0,0,0,38.166,9.75V6.583a1.583,1.583,0,1,0-3.166,0V9.75A1.583,1.583,0,0,0,36.583,11.333Z" transform="translate(18.848 1.35)" fill="#fff"/>
      <path id="Shape-3" data-name="Shape" d="M45.249,12H32.583a1.583,1.583,0,1,0,0,3.166H45.249a1.583,1.583,0,0,0,0-3.166Z" transform="translate(16.515 5.433)" fill="#fff"/>
      <path id="Shape-4" data-name="Shape" d="M28.562,31.1a5.568,5.568,0,1,0,4.64,2.533l2.63-3.008a5.453,5.453,0,0,0,4.458,0l2.63,3.008a5.541,5.541,0,1,0,9.281,0l2.63-3.008a5.49,5.49,0,0,0,2.229.475,5.568,5.568,0,1,0-4.64-2.533l-2.63,3.008a5.453,5.453,0,0,0-4.458,0L42.7,28.569a5.541,5.541,0,1,0-9.281,0l-2.63,3.008a5.491,5.491,0,0,0-2.229-.475Zm0,7.916a2.375,2.375,0,1,1,2.375-2.375A2.375,2.375,0,0,1,28.562,39.018Zm28.5-15.832a2.375,2.375,0,1,1-2.375,2.375A2.375,2.375,0,0,1,57.059,23.186ZM49.935,36.643a2.375,2.375,0,1,1-2.375-2.375A2.375,2.375,0,0,1,49.935,36.643ZM38.061,23.186a2.375,2.375,0,1,1-2.375,2.375A2.375,2.375,0,0,1,38.061,23.186Z" transform="translate(11.829 10.078)" fill="#fff"/>
      <path id="Shape-5" data-name="Shape" d="M26.338,36.58V30.166H29.5A1.583,1.583,0,1,0,29.5,27h-9.5a1.583,1.583,0,1,0,0,3.166h3.166V36.58a22.036,22.036,0,0,0-12.909,5.353L8,39.666l2.047-2.047A1.583,1.583,0,0,0,7.8,35.38L1.471,41.713A1.583,1.583,0,1,0,3.71,43.951L5.757,41.9l2.267,2.267A22.152,22.152,0,1,0,26.338,36.58ZM24.755,77.662a19,19,0,1,1,19-19A19,19,0,0,1,24.755,77.662Z" transform="translate(-0.988 14.181)" fill="#fff"/>
      <path id="Shape-6" data-name="Shape" d="M32.59,47.75H24.449a6.333,6.333,0,1,0,0,3.166H32.59a1.583,1.583,0,0,0,0-3.166ZM18.342,52.5a3.166,3.166,0,1,1,3.166-3.166A3.166,3.166,0,0,1,18.342,52.5Z" transform="translate(5.426 23.511)" fill="#fff"/>
      <path id="Shape-7" data-name="Shape" d="M35.5,57.171a1.583,1.583,0,0,0-2.09.8A12.666,12.666,0,1,1,21.832,40.166a1.583,1.583,0,0,0,0-3.166A15.832,15.832,0,1,0,36.3,59.263a1.583,1.583,0,0,0-.8-2.091Z" transform="translate(1.935 20.012)" fill="#fff"/>
      <path id="Shape-8" data-name="Shape" d="M49.333,46a1.583,1.583,0,0,0-1.583,1.583V50.75H44.583a1.583,1.583,0,0,0,0,3.166h4.75a1.583,1.583,0,0,0,1.583-1.583v-4.75A1.583,1.583,0,0,0,49.333,46Z" transform="translate(23.514 25.261)" fill="#fff"/>
      <path id="Shape-9" data-name="Shape" d="M55.748,37H33.583a1.583,1.583,0,0,0,0,3.166H55.748a1.583,1.583,0,0,0,0-3.166Z" transform="translate(17.099 20.012)" fill="#fff"/>
      <path id="Shape-10" data-name="Shape" d="M55.748,41H33.583a1.583,1.583,0,0,0,0,3.166H55.748a1.583,1.583,0,0,0,0-3.166Z" transform="translate(17.099 22.345)" fill="#fff"/>
      <path id="Shape-11" data-name="Shape" d="M33.583,45a1.583,1.583,0,1,0,0,3.166H44.666a1.583,1.583,0,0,0,0-3.166Z" transform="translate(17.099 24.678)" fill="#fff"/>
    </g>
  </g>
</svg>
