<svg xmlns="http://www.w3.org/2000/svg" xmlns:xlink="http://www.w3.org/1999/xlink" width="232" height="132" viewBox="0 0 232 132">
  <defs>
    <clipPath id="clip-path">
      <rect id="Rectangle_476" data-name="Rectangle 476" width="232" height="79" transform="translate(0.071 0.226)" fill="#f7f8fa"/>
    </clipPath>
    <linearGradient id="linear-gradient" x1="0.146" y1="1.102" x2="0.856" y2="0.345" gradientUnits="objectBoundingBox">
      <stop offset="0" stop-color="#5459ff"/>
      <stop offset="0.567" stop-color="#11abff"/>
    </linearGradient>
  </defs>
  <g id="Group_191" data-name="Group 191" transform="translate(-569 -3070.5)">
    <circle id="Ellipse_14" data-name="Ellipse 14" cx="66" cy="66" r="66" transform="translate(619 3070.5)" fill="rgba(59,130,246,0.2)"/>
    <g id="Mask_Group_1" data-name="Mask Group 1" transform="translate(568.929 3097.273)" clip-path="url(#clip-path)">
      <g id="students" transform="translate(73.798 -1.01)">
        <g id="Layer_2" data-name="Layer 2" transform="translate(0 0)">
          <g id="Layer_1" data-name="Layer 1">
            <path id="group_class" data-name="group class" d="M85.146,63.253a1.3,1.3,0,0,0-.09-.447L78.79,48.048a1.29,1.29,0,0,0-1.188-.786H72.447a15.393,15.393,0,0,0-5.321-8.1,10.031,10.031,0,0,0,1.682-5.529,8.209,8.209,0,0,0-7.881-8.486,7.344,7.344,0,0,0-2.913.608L56.8,20.394a1.29,1.29,0,0,0-1.259-1H52.63a12.912,12.912,0,0,0-4.5-7.73,8.429,8.429,0,0,0,1.3-4.475A6.95,6.95,0,0,0,42.746,0a6.952,6.952,0,0,0-6.684,7.177,8.427,8.427,0,0,0,1.3,4.479,12.883,12.883,0,0,0-4.5,7.727H29.945a1.291,1.291,0,0,0-1.256.986l-1.314,5.476a7.351,7.351,0,0,0-3.133-.71,8.209,8.209,0,0,0-7.883,8.486,10.051,10.051,0,0,0,1.692,5.547,15.326,15.326,0,0,0-5.321,8.08H7.569a1.284,1.284,0,0,0-1.187.786L.114,62.794a1.272,1.272,0,0,0-.089.449c0,.02-.011.034-.011.051v7.1a1.288,1.288,0,0,0,1.29,1.29H3.522v6.865a1.29,1.29,0,1,0,2.579,0V71.679H34.235v6.865a1.291,1.291,0,1,0,2.581,0V71.679H38.9a1.288,1.288,0,0,0,1.29-1.29v-7.1c0-.043-.02-.076-.023-.117l.023-14.643a1.288,1.288,0,0,0-1.29-1.29H35.759a15.416,15.416,0,0,0-5.21-8.005H54.674A15.329,15.329,0,0,0,49.4,47.244H46.264a1.288,1.288,0,0,0-1.29,1.29L45,63.177a.856.856,0,0,0-.025.117v7.1a1.288,1.288,0,0,0,1.29,1.29h2.09v6.865a1.291,1.291,0,1,0,2.581,0V71.679H79.069v6.865a1.29,1.29,0,0,0,2.579,0V71.679h2.217A1.29,1.29,0,0,0,85.157,70.4V63.3a.093.093,0,0,0-.011-.051ZM66.23,33.628c0,3.475-2.528,6.641-5.3,6.641s-5.3-3.166-5.3-6.641a5.635,5.635,0,0,1,5.3-5.907A5.635,5.635,0,0,1,66.23,33.628ZM32.084,32.8h21c-.025.275-.039.55-.039.83a9.852,9.852,0,0,0,.49,3.042h-21.9a9.914,9.914,0,0,0,.49-3.042C32.119,33.348,32.109,33.073,32.084,32.8ZM42.746,2.579a4.376,4.376,0,0,1,4.1,4.6c0,2.675-2,5.2-4.1,5.2s-4.1-2.526-4.1-5.2a4.376,4.376,0,0,1,4.11-4.6Zm-3.684,11a5.625,5.625,0,0,0,7.379,0,10.235,10.235,0,0,1,3.58,5.809H35.475a10.191,10.191,0,0,1,3.587-5.8Zm-8.1,8.38H54.517l1.2,5.321a8.491,8.491,0,0,0-1.96,2.838H31.41a8.555,8.555,0,0,0-1.774-2.661Zm-6.719,5.76a5.635,5.635,0,0,1,5.3,5.907c0,3.475-2.528,6.641-5.3,6.641s-5.3-3.166-5.3-6.641a5.635,5.635,0,0,1,5.3-5.9ZM37.618,69.11H2.594V64.594H37.618Zm0-19.276L37.6,62.015H3.252L8.424,49.834Zm-4.553-2.579H15.4A12.594,12.594,0,0,1,19.756,41.1a6.985,6.985,0,0,0,4.486,1.751,6.992,6.992,0,0,0,4.5-1.761A12.621,12.621,0,0,1,33.065,47.255ZM56.446,41.1a6.616,6.616,0,0,0,8.967,0,12.6,12.6,0,0,1,4.333,6.157H52.093A12.614,12.614,0,0,1,56.446,41.1Zm20.3,8.736,5.172,12.181H47.576l-.025-12.181ZM82.576,69.11H47.552V64.594H82.576Z" transform="translate(-0.015 0)" fill="url(#linear-gradient)"/>
          </g>
        </g>
      </g>
    </g>
  </g>
</svg>
